<svg width="179" height="184" viewBox="0 0 179 184" fill="none" xmlns="http://www.w3.org/2000/svg">
<path id="Vector" d="M32.2577 47.6948L33.3669 49.742C12.5105 71.5046 9.85315 90.4971 14.2972 113.348C18.7427 136.199 34.2837 149.752 40.0559 154.444C45.8281 159.136 52.2656 163.633 66.4729 167.798C80.6787 171.964 91.3333 169.756 91.3333 169.756L90.667 166.839C90.667 166.839 64.0345 171.025 43.6094 154.152C23.1843 137.279 20.9612 126.963 17.1852 112.806C13.4078 98.6466 15.8446 85.2011 20.2809 73.3947C24.7158 61.5897 35.5891 52.5032 35.5891 52.5032L38.4754 55.5153C38.4754 55.5153 46.9068 47.4362 58.226 42.8128C69.5438 38.1908 81.3079 39.3613 81.3079 39.3613L81.7497 34.9377C92.6245 35.1828 118.819 42.0851 134.362 64.0807C149.906 86.0763 147.095 103.574 147.095 103.574C147.095 103.574 132.376 102.428 129.046 102.506C125.718 102.586 126.384 105.063 128.164 105.138C129.943 105.213 150.687 106.436 150.687 106.436C150.796 99.886 149.68 77.8446 136.58 61.9527C123.481 46.0607 115.71 42.8386 106.609 38.2257C97.5084 33.6129 80.5149 31.4248 80.5149 31.4248L81.8467 30.1486L87.9637 30.758L91.61 20.7933L115.708 27.7294L112.493 38.5885L115.267 39.7076L121.432 13.717L146.335 20.606L136.359 57.2767L138.801 59.8247L152.654 0.105243L178.923 7.53041L154.572 100.713L157.679 100.847C160.124 120.73 147.257 143.725 147.257 143.725L142.817 141.312C140.156 147.862 123.291 161.8 123.291 161.8L124.179 163.171C121.517 165.277 116.856 169.298 109.312 172.085C101.766 174.869 92.666 176.034 92.666 176.034L92.2204 172.461L80.2347 173.722L76.9092 183.577L52.7141 176.54L54.9296 166.416L52.7096 166.321L49.3839 180.173L23.8576 172.188L31.3967 148.963L28.5106 146.841L25.1857 158.473L0.545864 150.971L6.9764 127.921C4.97741 123.613 2.08909 113.938 1.19812 103.236C0.307156 92.5339 2.7454 79.5321 2.7454 79.5321L11.6231 81.6908C12.2876 78.8313 14.2833 72.4736 19.1652 63.7983C24.0456 55.1216 32.2563 47.699 32.2563 47.699L32.2577 47.6948ZM123.042 65.5949C123.042 65.5949 111.941 51.7884 96.8459 47.5839C81.7523 43.3808 71.9855 45.6265 71.9855 45.6265L69.7648 43.309C69.7648 43.309 58.6683 44.6089 50.457 50.2544L52.233 52.1078C52.233 52.1078 40.0269 59.3586 33.1509 70.3926C26.2735 81.428 24.9482 99.5864 24.9482 99.5864L36.2675 99.8506C36.2675 99.8506 34.4885 87.777 44.0284 75.0804C53.5684 62.3839 63.1098 54.5736 84.4178 55.9347C105.726 57.2959 115.719 72.6093 115.719 72.6093L123.041 65.5935L123.042 65.5949ZM106.943 77.3843C92.9874 62.8199 70.3656 61.8473 56.4183 75.2118C42.471 88.5764 42.4779 111.219 56.4337 125.783C70.3895 140.348 93.0114 141.32 106.959 127.956C120.906 114.591 120.899 91.9486 106.943 77.3843ZM94.8865 173.019C110.112 170.608 119.964 163.655 119.964 163.655L111.082 149.5C122.843 142.23 130.608 130.789 130.608 130.789L138.378 136.677C133.943 146.705 119.964 156.99 119.964 156.99L121.517 158.611C121.517 158.611 125.068 156.708 132.389 149.692C139.711 142.676 143.871 134.191 143.871 134.191L132.217 127.693C134.303 123.922 135.488 120.335 135.488 120.335L125.054 116.11C122.409 129.493 108.637 140.287 97.9838 143.827C87.3311 147.366 81.1171 147.101 69.7956 144.171C58.4755 141.239 50.2573 133.553 50.2573 133.553L47.3728 136.317C54.474 144.172 66.2464 149.349 66.2464 149.349L63.8054 153.466C80.0097 160.16 92.4377 156.251 92.4377 156.251L94.8837 173.019L94.8865 173.019Z" fill="#FF62E6"/>
</svg>
