<svg width="5" height="592" viewBox="0 0 5 592" fill="none" xmlns="http://www.w3.org/2000/svg">
<path d="M4.99996 16.7244C4.99996 18.0951 3.88072 19.2064 2.50001 19.2064C1.1193 19.2064 -1.68407e-07 18.0951 -1.0849e-07 16.7244C-4.85726e-08 15.3536 1.1193 14.2424 2.50001 14.2424C3.88072 14.2424 4.99996 15.3536 4.99996 16.7244Z" fill="white"/>
<path d="M4.99996 54.1184C4.99996 55.4892 3.88072 56.6004 2.50001 56.6004C1.1193 56.6004 -1.68407e-07 55.4892 -1.0849e-07 54.1184C-4.85724e-08 52.7477 1.1193 51.6365 2.50001 51.6365C3.88072 51.6365 4.99996 52.7477 4.99996 54.1184Z" fill="white"/>
<path d="M5.00021 2.48196C5.00021 3.85271 3.88096 4.96392 2.50025 4.96392C1.11954 4.96392 0.000243972 3.85271 0.000244032 2.48196C0.000244092 1.11121 1.11954 4.89261e-08 2.50025 1.09279e-07C3.88096 1.69632e-07 5.00021 1.11121 5.00021 2.48196Z" fill="white"/>
<path d="M4.99996 282.616C4.99996 283.987 3.88072 285.098 2.50001 285.098C1.1193 285.098 -1.68408e-07 283.987 -1.0849e-07 282.616C-4.85731e-08 281.246 1.1193 280.134 2.50001 280.134C3.88072 280.134 4.99996 281.246 4.99996 282.616Z" fill="white"/>
<path d="M4.99996 269.835C4.99996 271.206 3.88072 272.317 2.50001 272.317C1.1193 272.317 -1.68408e-07 271.206 -1.0849e-07 269.835C-4.85731e-08 268.464 1.1193 267.353 2.50001 267.353C3.88072 267.353 4.99996 268.464 4.99996 269.835Z" fill="white"/>
<path d="M4.99996 308.76C4.99996 310.131 3.88072 311.242 2.50001 311.242C1.1193 311.242 -1.68408e-07 310.131 -1.0849e-07 308.76C-4.85731e-08 307.39 1.1193 306.278 2.50001 306.278C3.88072 306.278 4.99996 307.39 4.99996 308.76Z" fill="white"/>
<path d="M4.99996 295.979C4.99996 297.35 3.88072 298.461 2.50001 298.461C1.1193 298.461 -1.68406e-07 297.35 -1.08489e-07 295.979C-4.85718e-08 294.608 1.1193 293.497 2.50001 293.497C3.88072 293.497 4.99996 294.608 4.99996 295.979Z" fill="white"/>
<path d="M4.99996 471.097C4.99996 472.468 3.88072 473.579 2.50001 473.579C1.1193 473.579 -1.68408e-07 472.468 -1.0849e-07 471.097C-4.85731e-08 469.726 1.1193 468.615 2.50001 468.615C3.88072 468.615 4.99996 469.726 4.99996 471.097Z" fill="white"/>
<path d="M4.99996 507.31C4.99996 508.681 3.88072 509.792 2.50001 509.792C1.1193 509.792 -1.68408e-07 508.681 -1.0849e-07 507.31C-4.85731e-08 505.939 1.1193 504.828 2.50001 504.828C3.88072 504.828 4.99996 505.939 4.99996 507.31Z" fill="white"/>
<path d="M4.99996 458.316C4.99996 459.686 3.88072 460.798 2.50001 460.798C1.1193 460.798 -1.68406e-07 459.686 -1.08489e-07 458.316C-4.85718e-08 456.945 1.1193 455.834 2.50001 455.834C3.88072 455.834 4.99996 456.945 4.99996 458.316Z" fill="white"/>
<path d="M4.99996 256.891C4.99996 258.262 3.88072 259.373 2.50001 259.373C1.1193 259.373 -1.68408e-07 258.262 -1.0849e-07 256.891C-4.85731e-08 255.52 1.1193 254.409 2.50001 254.409C3.88072 254.409 4.99996 255.52 4.99996 256.891Z" fill="white"/>
<path d="M-7.67244e-07 136.778L-4.58642e-08 120.275C-2.05342e-08 119.696 0.473168 119.226 1.05686 119.226L3.9431 119.226C4.52679 119.226 4.99996 119.696 4.99996 120.275L4.99996 136.778C4.99996 137.358 4.52679 137.828 3.9431 137.828L1.05686 137.828C0.473167 137.828 -7.92574e-07 137.358 -7.67244e-07 136.778Z" fill="white"/>
<path d="M-7.67244e-07 243.987L-4.58636e-08 227.484C-2.05336e-08 226.904 0.473168 226.435 1.05686 226.435L3.9431 226.435C4.52679 226.435 4.99996 226.904 4.99996 227.484L4.99996 243.987C4.99996 244.567 4.52679 245.036 3.9431 245.036L1.05686 245.036C0.473167 245.036 -7.92574e-07 244.567 -7.67244e-07 243.987Z" fill="white"/>
<path d="M-7.67244e-07 338.078L-4.58636e-08 321.575C-2.05336e-08 320.995 0.473168 320.526 1.05686 320.526L3.9431 320.526C4.52679 320.526 4.99996 320.995 4.99996 321.575L4.99996 338.078C4.99996 338.658 4.52679 339.127 3.9431 339.127L1.05686 339.127C0.473167 339.127 -7.92574e-07 338.658 -7.67244e-07 338.078Z" fill="white"/>
<path d="M-7.67244e-07 365.359L-4.58636e-08 348.855C-2.05336e-08 348.276 0.473168 347.806 1.05686 347.806L3.9431 347.806C4.52679 347.806 4.99996 348.276 4.99996 348.855L4.99996 365.359C4.99996 365.938 4.52679 366.408 3.9431 366.408L1.05686 366.408C0.473167 366.408 -7.92574e-07 365.938 -7.67244e-07 365.359Z" fill="white"/>
<path d="M-7.67244e-07 109.764L-4.58639e-08 93.2604C-2.05339e-08 92.6809 0.473168 92.2112 1.05686 92.2112L3.9431 92.2112C4.52679 92.2112 4.99996 92.6809 4.99996 93.2604L4.99996 109.764C4.99996 110.343 4.52679 110.813 3.9431 110.813L1.05686 110.813C0.473167 110.813 -7.92574e-07 110.343 -7.67244e-07 109.764Z" fill="white"/>
<path d="M-7.67244e-07 82.7516L-4.58639e-08 66.2483C-2.05339e-08 65.6689 0.473168 65.1991 1.05686 65.1991L3.9431 65.1991C4.52679 65.1991 4.99996 65.6689 4.99996 66.2483L4.99996 82.7516C4.99996 83.3311 4.52679 83.8009 3.9431 83.8009L1.05686 83.8009C0.473167 83.8009 -7.92574e-07 83.3311 -7.67244e-07 82.7516Z" fill="white"/>
<path d="M-7.67246e-07 590.012L-4.58636e-08 573.509C-2.05336e-08 572.929 0.473168 572.46 1.05686 572.46L3.9431 572.46C4.52679 572.46 4.99996 572.929 4.99996 573.509L4.99996 590.012C4.99996 590.592 4.52679 591.061 3.9431 591.061L1.05686 591.061C0.473167 591.061 -7.92576e-07 590.592 -7.67246e-07 590.012Z" fill="white"/>
<path d="M-7.67243e-07 563L-4.58636e-08 546.497C-2.05336e-08 545.917 0.473168 545.448 1.05686 545.448L3.9431 545.448C4.52679 545.448 4.99996 545.917 4.99996 546.497L4.99996 563C4.99996 563.58 4.52679 564.049 3.9431 564.049L1.05686 564.049C0.473167 564.049 -7.92573e-07 563.58 -7.67243e-07 563Z" fill="white"/>
<path d="M-7.67243e-07 535.988L-4.58636e-08 519.485C-2.05336e-08 518.905 0.473168 518.435 1.05686 518.435L3.9431 518.435C4.52679 518.435 4.99996 518.905 4.99996 519.485L4.99996 535.988C4.99996 536.567 4.52679 537.037 3.9431 537.037L1.05686 537.037C0.473167 537.037 -7.92573e-07 536.567 -7.67243e-07 535.988Z" fill="white"/>
</svg>
