<svg width="925" height="704" viewBox="0 0 925 704" fill="none" xmlns="http://www.w3.org/2000/svg">
<path d="M91.7803 19.5508H132.488L188.7 74.4802V87.5141L423.246 309.09H494.967L735.326 81.9299V70.7575L789.603 19.5508H828.371V0H851.632L898.153 46.5512V98.6865L834.185 154.545L832.249 184.339L494.967 506.463H469.767L398.047 433.844L355.408 435.69L16.1824 111.72V76.3417L254.607 299.783L89.8415 131.271L91.7803 19.5508Z" fill="#DB00FF"/>
<path d="M149.437 465.022L89.8423 407.777V352.847L149.437 408.935V465.022Z" fill="#DB00FF"/>
<path d="M155.756 471.092L192.578 506.463V538.115L89.8423 634.007V700.109H241.038L319.545 623.767V607.007L358.31 570.699V470.152L125.702 245.782H89.8423V343.069L157.203 408.934L155.756 471.092Z" fill="#DB00FF"/>
<path d="M89.8423 621.44V609.801L144.604 556.733H155.749L89.8423 621.44Z" fill="#DB00FF"/>
<path d="M293.376 199.235V221.576L372.849 297.917V274.644L293.376 199.235Z" fill="#DB00FF"/>
<path d="M520.166 335.624C526.228 341.449 534.704 333.296 559.419 309.556C584.134 285.816 588.011 281.16 582.679 276.039C577.347 270.917 575.412 272.316 548.758 297.917C522.105 323.519 514.11 329.802 520.166 335.624Z" fill="#DB00FF"/>
<path d="M541.488 355.641L601.093 296.989H590.917" fill="#DB00FF"/>
<path d="M543.912 235.542L639.862 143.839L647.618 151.755L551.512 243.454L543.912 235.542Z" fill="#DB00FF"/>
<path d="M662.395 389.621L654.401 381.942L798.326 243.454H831.039V344.935L763.435 407.077L764.889 474.108L729.272 506.463V537.649L831.039 632.612V700.343H678.388L599.158 622.835V605.379L559.905 569.071V471.896L573.716 459.446H591.16L662.395 389.621Z" fill="#DB00FF"/>
<path d="M831.037 351.918V409.172L769.978 467.128V409.521L831.037 351.918Z" fill="#DB00FF"/>
<path d="M528.646 558.598L666.758 694.754H626.05L528.646 598.396V558.598Z" fill="#DB00FF"/>
<path d="M769.978 561.388L831.037 620.041V608.868L775.795 558.594C775.795 558.594 769.978 555.105 769.978 561.388Z" fill="#DB00FF"/>
<path d="M439.725 597.7H482.368V608.872L461.046 626.674L439.725 607.007V597.7Z" fill="#DB00FF"/>
<path d="M439.725 636.04H482.368V647.212L461.046 665.018L439.725 645.351V636.04Z" fill="#DB00FF"/>
<path d="M439.725 674.383H482.368V685.556L461.046 703.362L439.725 683.694V674.383Z" fill="#DB00FF"/>
<path d="M432.7 289.772H426.883V296.988H432.7V289.772Z" fill="#DB00FF"/>
<path d="M429.791 287.328H434.513V291.867H439.239V281.394H429.791V287.328Z" fill="#DB00FF"/>
<path d="M434.514 277.555H442.872V284.538H449.416V275.46H445.417V271.967H434.514V277.555Z" fill="#DB00FF"/>
<path d="M378.97 238.161H373.154V245.378H378.97V238.161Z" fill="#DB00FF"/>
<path d="M376.057 235.717H380.784V240.256H385.51V229.783H376.057V235.717Z" fill="#DB00FF"/>
<path d="M380.784 225.939H389.142V232.923H395.686V223.845H391.687V220.355H380.784V225.939Z" fill="#DB00FF"/>
<path d="M325.147 186.461H319.33V193.678H325.147V186.461Z" fill="#DB00FF"/>
<path d="M322.239 184.017H326.964V188.556H331.687V178.083H322.239V184.017Z" fill="#DB00FF"/>
<path d="M326.964 174.243H335.323V181.223H341.867V172.149H337.868V168.655H326.964V174.243Z" fill="#DB00FF"/>
<path d="M272.432 135.826H266.615V143.042H272.432V135.826Z" fill="#DB00FF"/>
<path d="M269.523 133.381H274.249V137.92H278.972V127.444H269.523V133.381Z" fill="#DB00FF"/>
<path d="M274.249 123.604H282.607V130.587H289.148V121.509H285.152V118.02H274.249V123.604Z" fill="#DB00FF"/>
<path d="M219.568 85.043H213.752V92.2593H219.568V85.043Z" fill="#DB00FF"/>
<path d="M216.656 82.5984H221.382V87.1373H226.104V76.6605H216.656V82.5984Z" fill="#DB00FF"/>
<path d="M221.383 72.8212H229.741V79.8044H236.285V70.7266H232.285V67.2369H221.383V72.8212Z" fill="#DB00FF"/>
<path d="M166.777 34.3298H160.959V41.5461H166.777V34.3298Z" fill="#DB00FF"/>
<path d="M163.865 31.889H168.591V36.424H173.317V25.9511H163.865V31.889Z" fill="#DB00FF"/>
<path d="M168.591 22.1119H176.949V29.0952H183.493V20.0173H179.494V16.5276H168.591V22.1119Z" fill="#DB00FF"/>
<path d="M10.6712 361.944L0 371.889L5.04144 376.532C7.44088 374.181 20.8785 361.944 20.8785 361.944C20.8785 361.944 7.44088 349.707 5.04144 347.356L0 352L10.6712 361.944Z" fill="#DB00FF"/>
<path d="M914.329 361.944L925 371.889L919.959 376.532C917.559 374.181 904.122 361.944 904.122 361.944C904.122 361.944 917.559 349.707 919.959 347.356L925 352L914.329 361.944Z" fill="#DB00FF"/>
<path d="M156.601 434.773L266.615 538.115H358.31" fill="#DB00FF"/>
<path d="M145.147 665.018H135.397V674.383H145.147V665.018Z" fill="#DB00FF"/>
<path d="M284.65 426.395H297.25V437.8" fill="#DB00FF"/>
<path d="M786.694 661.937H776.519V671.714H786.694V661.937Z" fill="#DB00FF"/>
<path d="M696.562 671.71C700.977 671.71 704.556 668.272 704.556 664.031C704.556 659.79 700.977 656.352 696.562 656.352C692.146 656.352 688.567 659.79 688.567 664.031C688.567 668.272 692.146 671.71 696.562 671.71Z" fill="#DB00FF"/>
</svg>
