<svg width="35" height="35" viewBox="0 0 35 35" fill="none" xmlns="http://www.w3.org/2000/svg">
<g id="icon_filled/Setting">
<path id="Exclude" fill-rule="evenodd" clip-rule="evenodd" d="M16.4364 2.91669C14.3898 2.91669 12.7307 4.57578 12.7307 6.62237C12.7307 6.91897 12.5262 7.31468 12.0373 7.58017C11.8869 7.66187 11.7386 7.74683 11.5924 7.83496C11.1048 8.12887 10.6471 8.11 10.3784 7.95625C8.59372 6.9351 6.31945 7.54446 5.2844 9.32114L4.25712 11.0845C3.22008 12.8646 3.83209 15.1487 5.62022 16.1718C5.87948 16.3202 6.12323 16.6974 6.11136 17.2589C6.10966 17.3391 6.10881 17.4195 6.10881 17.5C6.10881 17.5806 6.10966 17.661 6.11136 17.7412C6.12324 18.3027 5.87949 18.6799 5.62025 18.8282C3.83213 19.8513 3.22013 22.1354 4.25716 23.9155L5.28447 25.6789C6.31952 27.4556 8.59377 28.065 10.3785 27.0438C10.6472 26.8901 11.1048 26.8712 11.5924 27.1651C11.7386 27.2532 11.8869 27.3382 12.0373 27.4199C12.5262 27.6854 12.7307 28.0811 12.7307 28.3777C12.7307 30.4243 14.3898 32.0834 16.4364 32.0834H18.5636C20.6102 32.0834 22.2693 30.4243 22.2693 28.3777C22.2693 28.0811 22.4738 27.6854 22.9627 27.4199C23.1131 27.3382 23.2614 27.2532 23.4076 27.1651C23.8952 26.8712 24.3528 26.8901 24.6215 27.0438C26.4062 28.065 28.6805 27.4556 29.7156 25.6789L30.7429 23.9155C31.7799 22.1355 31.1679 19.8514 29.3798 18.8283C29.1205 18.6799 28.8768 18.3027 28.8887 17.7413C28.8904 17.661 28.8912 17.5806 28.8912 17.5C28.8912 17.4195 28.8904 17.3391 28.8887 17.2588C28.8768 16.6974 29.1205 16.3201 29.3798 16.1718C31.1679 15.1487 31.7799 12.8646 30.7429 11.0845L29.7156 9.32114C28.6806 7.54445 26.4063 6.93508 24.6216 7.95624C24.3529 8.11 23.8952 8.12886 23.4076 7.83495C23.2615 7.74682 23.1131 7.66187 22.9627 7.58017C22.4738 7.31468 22.2693 6.91897 22.2693 6.62237C22.2693 4.57578 20.6102 2.91669 18.5636 2.91669H16.4364ZM17.4999 13.125C15.0837 13.125 13.1249 15.0838 13.1249 17.5C13.1249 19.9163 15.0837 21.875 17.4999 21.875C19.9162 21.875 21.8749 19.9163 21.8749 17.5C21.8749 15.0838 19.9162 13.125 17.4999 13.125Z" fill="#FF62E6"/>
</g>
</svg>
