<svg width="174" height="172" viewBox="0 0 174 172" fill="none" xmlns="http://www.w3.org/2000/svg">
<path id="Vector" d="M139.576 128.778L138.608 126.835C159.044 106.749 162.25 88.9489 158.918 67.4011C155.583 45.8519 141.462 32.8482 136.205 28.3391C130.947 23.8301 125.057 19.493 111.842 15.3331C98.6282 11.1718 88.5198 13.0625 88.5198 13.0625L89.0384 15.8146C89.0384 15.8146 114.256 12.3435 132.85 28.552C151.444 44.7606 153.152 54.4919 156.18 67.8602C159.208 81.2298 156.415 93.8212 151.802 104.838C147.19 115.853 136.62 124.202 136.62 124.202L134.016 121.322C134.016 121.322 125.781 128.767 114.957 132.915C104.135 137.061 93.1082 135.757 93.1082 135.757L92.5281 139.906C82.3036 139.487 57.9103 132.547 44.1006 111.61C30.2909 90.6727 33.5866 74.2806 33.5866 74.2806C33.5866 74.2806 47.3946 75.6122 50.5311 75.5968C53.6663 75.58 53.1315 73.2406 51.4595 73.1392C49.7876 73.0377 30.3123 71.5288 30.3123 71.5288C29.9661 77.6815 30.1979 98.4113 41.9344 113.571C53.671 128.731 60.8639 131.893 69.2566 136.385C77.6492 140.877 93.5595 143.228 93.5595 143.228L92.2588 144.404L86.5251 143.726L82.7235 153.025L60.3041 146.09L63.7335 135.942L61.1641 134.843L54.3965 159.157L31.2181 152.252L41.9685 117.968L39.7656 115.532L24.51 171.405L0.065864 163.972L26.4434 76.8389L23.5252 76.6595C21.9628 57.9342 34.9255 36.5512 34.9255 36.5512L39.0147 38.8955C41.7623 32.787 58.1508 19.9837 58.1508 19.9837L57.366 18.6794C59.9497 16.7467 64.4853 13.0492 71.688 10.5622C78.8919 8.07655 87.4989 7.14009 87.4989 7.14009L87.7855 10.5053L99.1114 9.52776L102.607 0.325866L125.114 7.3582L122.653 16.8319L124.739 16.9601L128.383 4.002L152.108 11.9474L144.15 33.6394L146.787 35.6835L150.348 24.8119L173.256 32.288L166.348 53.8349C168.069 57.917 170.428 67.0583 170.869 77.1295C171.309 87.2007 168.532 99.3752 168.532 99.3752L160.258 97.1928C159.526 99.8681 157.412 105.807 152.495 113.874C147.58 121.942 139.578 128.774 139.578 128.774L139.576 128.778ZM54.8096 110.384C54.8096 110.384 64.7432 123.549 78.7919 127.762C92.8394 131.973 102.114 130.032 102.114 130.032L104.117 132.248C104.117 132.248 114.608 131.219 122.545 126.057L120.943 124.285C120.943 124.285 132.699 117.684 139.579 107.435C146.461 97.1856 148.383 80.1466 148.383 80.1466L137.741 79.7019C137.741 79.7019 138.966 91.0774 129.517 102.842C120.068 114.606 110.799 121.779 90.7976 120.131C70.7965 118.482 61.9617 103.92 61.9617 103.92L54.8109 110.385L54.8096 110.384ZM70.3974 99.5854C82.9891 113.512 104.241 114.819 117.863 102.503C131.484 90.1877 132.319 68.912 119.728 54.985C107.136 41.0579 85.8839 39.7515 72.2623 52.0671C58.6406 64.3827 57.8057 85.6584 70.3974 99.5854ZM85.2974 9.93456C70.8802 11.9356 61.3501 18.2983 61.3501 18.2983L69.1831 31.7524C57.8448 38.3793 50.1125 48.9945 50.1125 48.9945L43.0192 43.3275C47.5658 33.982 61.103 24.5605 61.103 24.5605L59.7013 23.0101C59.7013 23.0101 56.2896 24.7368 49.1389 31.2019C41.9881 37.6671 37.7579 45.5678 37.7579 45.5678L48.4838 51.8759C46.3801 55.3833 45.1319 58.7325 45.1319 58.7325L54.7939 62.8836C57.7802 50.3545 71.1416 40.4514 81.2978 37.3103C91.4539 34.1693 97.2917 34.5269 107.837 37.4763C118.381 40.4269 125.829 47.7921 125.829 47.7921L128.646 45.2451C122.255 37.7406 111.369 32.672 111.369 32.672L113.819 28.8463C98.8191 22.2755 86.9786 25.7321 86.9786 25.7321L85.3 9.93471L85.2974 9.93456Z" fill="#E057A1"/>
</svg>
